<mxfile host="app.diagrams.net" modified="2021-08-31T02:05:12.239Z" agent="5.0 (Windows NT 10.0; WOW64) AppleWebKit/537.36 (KHTML, like Gecko) coc_coc_browser/97.0.194 Chrome/91.0.4472.194 Safari/537.36" etag="w3sBmhHh7-IpBzJWcGZr" version="15.0.3" type="github">
  <diagram id="EKWaFpZcXeL-7FQJ16Cv" name="Page-1">
    <mxGraphModel dx="828" dy="477" grid="1" gridSize="10" guides="1" tooltips="1" connect="1" arrows="1" fold="1" page="1" pageScale="1" pageWidth="827" pageHeight="1169" math="0" shadow="0">
      <root>
        <mxCell id="0" />
        <mxCell id="1" parent="0" />
      </root>
    </mxGraphModel>
  </diagram>
</mxfile>
